<svg width="304" height="96" viewBox="0 0 304 96" fill="none" xmlns="http://www.w3.org/2000/svg">
<path d="M141.488 41.8093C137.999 41.0398 135.372 40.2704 133.622 39.4063C133.657 39.3235 133.705 39.2524 133.74 39.1577C134.627 37.0034 135.077 34.6241 135.077 32.008C135.077 30.1378 134.757 28.4095 134.13 26.8233C133.503 25.2372 132.604 23.8522 131.433 22.6803C130.262 21.5084 128.855 20.597 127.199 19.9459C125.542 19.2949 123.685 18.9634 121.627 18.9634H107.55C105.965 14.9151 104.214 9.90795 102.239 3.77626C102.132 3.43298 101.612 3.57503 101.695 3.91831C105.669 21.8399 104.557 27.2495 93.994 23.6036C92.4444 23.0709 91.4034 25.2016 92.7874 26.0894C95.0823 27.5573 89.7 28.4687 91.0958 28.9067C92.3024 29.2855 93.4498 29.8655 94.2897 30.8007C102.807 40.3178 97.6137 45.538 75.8007 57.0675C75.4931 57.2332 75.6942 57.6948 76.0254 57.5883C89.1913 53.2677 94.9403 54.9723 95.2479 60.7962L93.7219 68.0406H102.901L102.949 67.8393C102.996 67.8275 103.031 67.8038 103.043 67.7565C107.124 56.0258 108.154 46.2601 109.348 61.9681C109.372 62.2995 109.845 62.335 109.916 62.0154C111.903 52.4036 109.691 41.8566 130.073 66.703C130.298 66.9752 130.724 66.6674 130.534 66.3715C119.427 49.1483 119.876 46.6389 137.478 54.6763C138.247 55.0314 138.827 53.9306 138.117 53.4808C131.717 49.4916 128.772 46.9585 129.068 45.4551C129.375 45.2066 129.694 44.9461 129.99 44.6739C130.108 44.5555 130.215 44.4371 130.333 44.3188C132.131 43.644 135.81 43.4902 141.299 43.6914C142.423 43.7506 142.636 42.0578 141.488 41.8093ZM117.842 27.794C118.362 27.3679 118.729 26.7405 119.072 25.8645C120.456 27.9124 121.698 27.6283 125.4 25.829C124.537 27.7348 124.253 29.1434 125.046 30.5757C125.069 30.6349 125.117 30.6823 125.14 30.7415C125.495 31.3215 126.039 31.9015 126.773 32.5289C119.841 35.7013 119.001 35.2633 120.468 31.5464C117.581 34.2334 114.92 33.6771 111.584 27.794H117.842Z" fill="white"/>
<path d="M209.591 18.0754L191.623 49.1955C188.582 37.9028 190.522 33.1561 204.256 15.4713C192.155 27.9359 192.593 26.5509 205.25 5.57533C191.859 24.7398 191.421 24.2426 202.139 1.88212C189.032 22.6565 185.779 19.2828 185.613 0C182.396 22.1948 182.053 28.291 177.321 18.5371C178.599 35.8195 176.268 61.9205 167.621 76.1726C169.23 73.7696 170.638 71.7573 171.856 70.0882C172.802 68.7861 174.316 68.0285 175.937 68.0285H180.184C180.349 69.5082 180.468 71.3311 180.598 73.4382C181.047 71.4969 181.449 69.7094 181.828 68.0285H191.457L203.322 46.8044L198.59 68.0285H208.006L218.652 18.0873H209.591V18.0754ZM183.058 62.4769C186.016 49.2902 186.796 46.9938 191.268 49.8229L183.957 62.4769H183.058Z" fill="white"/>
<path d="M246.176 75.6172C246.164 75.6764 246.141 75.7356 246.129 75.7947C246.129 76.4458 246.153 76.2564 246.176 75.6172Z" fill="white"/>
<path d="M291.922 50.4377L291.26 23.2239C294.56 20.6907 298.689 17.7077 303.846 14.1566C298.949 17.033 294.773 19.3768 291.201 21.2234L291.142 18.9507H275.929C277.384 14.7721 280.401 8.82982 284.647 1.14746C260.942 35.0848 258.055 64.7844 249.964 64.2044C249.325 63.648 249.29 61.7896 249.692 58.9368L252.803 44.3178C255.701 32.5043 259.889 16.9857 262.965 1.95239C261.829 5.36151 260.788 8.45103 259.818 11.2328C258.197 15.8611 253.844 18.9625 248.947 18.9625L246.652 29.7462C243.837 29.2727 240.43 26.8224 235.911 22.3716C242.997 31.1785 241.222 36.1383 230.754 39.0266H230.659L234.929 18.9625H225.679L215.305 68.0633H224.484L228.754 47.869H239.495C243.352 52.8643 238.596 68.4421 224.721 77.1425C239.377 71.2594 242.831 61.7186 241.412 74.3015C246.049 61.8014 246.25 72.8811 246.179 75.6273C250.508 59.6589 252.803 68.1225 262.231 95.9992C260.386 85.1208 259.345 76.7163 259.652 70.6675C259.723 69.2115 260.906 68.0633 262.349 68.0633L266.135 59.1972C268.82 58.4988 272.44 58.8658 277.16 60.2744C275.586 59.2327 274.261 58.3331 273.197 57.54H283.027L283.169 68.0633H292.348L291.946 51.432C295.093 51.3255 298.57 51.2071 302.462 51.0532C298.476 50.8638 294.986 50.6626 291.922 50.4377ZM285.464 41.1336C285.381 43.797 286.505 46.6971 288.693 47.8216C287.167 48.4845 285.144 49.0646 282.897 49.5854C270.606 47.9637 272.96 45.4897 285.464 41.1336ZM289.781 25.9938C285.192 32.8357 285.286 34.2325 289.344 33.6407C284.707 35.9371 284.505 36.3395 288.48 36.0436C286.658 36.6828 285.7 38.5413 285.499 40.6246C269.269 44.0101 283.571 36.5763 283.571 36.5763C283.571 36.5763 272.534 38.9437 286.15 27.3432C285.925 29.3792 286.753 28.6335 289.781 25.9938ZM287.356 20.6907C287.179 21.6969 287.001 22.5847 286.848 23.3778C279.892 26.6093 276.237 27.1065 275.243 24.9521C277.727 25.8518 280.507 23.65 287.356 20.6907Z" fill="white"/>
<path d="M49.2449 27.7945H56.1768V19.6031C60.0923 17.3422 65.4746 14.8919 71.9215 12.0746C49.1503 21.0354 40.7161 19.2953 45.9682 12.8441C36.1618 19.9819 31.8797 21.5089 13.0713 11.8379C26.2608 21.0946 23.1024 23.6514 0 28.3035C25.693 25.8295 26.178 26.7646 2.72071 33.4763C21.3162 29.7476 28.4965 28.5521 33.1809 31.1918L25.35 68.0766H34.6004L42.7862 29.5464C45.5779 29.9725 49.8837 31.393 56.3898 33.7012C52.0484 31.6179 49.7772 29.7003 49.2449 27.7945Z" fill="white"/>
<path d="M100.916 18.9634H91.4762C92.4344 16.9392 93.5345 14.6546 94.8002 12.0859C82.6043 30.3271 77.7189 35.0028 73.6023 27.1429C74.8917 34.553 75.5186 38.6013 75.1165 42.3892H74.5605L69.2373 18.9634H59.4309L67.1436 50.8055H71.0472C69.0363 53.1256 65.7359 57.4462 60.9806 64.0514C72.9635 49.9532 73.4722 50.261 64.3519 67.9221C73.9572 50.9949 63.7013 70.8459 55.7402 89.7381C64.2218 71.1537 78.405 58.8075 72.1828 77.6523C74.2648 71.6864 75.7197 67.496 76.8553 64.3473L100.916 19.8156V18.9634Z" fill="white"/>
<path d="M175.998 48.3666C167.09 43.6317 167.137 41.572 175.252 37.1804C165.576 39.6899 165.008 39.2993 171.798 34.3513C163.435 38.2457 162.429 37.571 165.032 29.794C160.347 34.4342 156.905 34.0672 151.156 27.024H175.654V18.1816H137.967V27.024H141.539L133.377 68.0519H151.76C154.563 68.0519 157.106 67.6257 159.401 66.7853C161.696 65.9448 163.648 64.7493 165.292 63.2104C166.925 61.6716 168.19 59.825 169.077 57.6706C169.965 55.5163 170.414 53.137 170.414 50.5209C170.414 49.5858 170.331 48.6862 170.178 47.8221C171.644 47.8102 173.561 48.0114 175.998 48.3666ZM163.198 58.8188C161.873 57.5286 160.738 56.5461 159.697 55.8003C159.378 56.2738 159.011 56.7118 158.549 57.1143C156.964 58.5111 154.977 59.2213 152.588 59.2213H144.035L146.72 46.5318C147.016 46.4608 147.288 46.3897 147.56 46.3187H149.311C148.672 45.1705 147.856 43.9158 146.898 42.4716C153.865 46.5436 157.071 46.7685 161.755 42.2822C159.165 47.5616 159.721 48.6388 165.564 48.8519C159.614 49.9883 159.519 50.3434 165.399 51.6692C159.732 51.4798 160.702 52.1545 167.551 57.6351C160.135 53.4447 159.354 53.4684 163.198 58.8188Z" fill="white"/>
</svg>
